<svg width="486" height="350" viewBox="0 0 486 350" fill="none" xmlns="http://www.w3.org/2000/svg">
<path opacity="0.6" d="M282.376 61.7174C251.219 60.6352 221.521 50.5827 193.206 39.5865C164.89 28.5904 136.826 16.4048 106.398 10.5781C86.835 6.82624 64.4619 6.29856 48.7023 16.7804C33.5333 26.8643 28.6336 44.273 25.998 60.4251C24.0158 72.5794 22.8658 85.3687 28.2846 96.7494C32.0567 104.647 38.7507 111.287 43.3819 118.853C59.4906 145.179 48.1027 177.644 30.6427 203.37C22.4541 215.444 12.9545 226.932 6.63634 239.77C0.31817 252.609 -2.60823 267.317 2.9224 280.41C8.40382 293.378 21.4608 303.136 35.6095 309.991C64.3456 323.903 98.205 327.883 131.223 330.163C204.312 335.158 277.794 332.994 351.075 330.829C378.196 330.024 405.437 329.215 432.115 325.016C446.93 322.686 462.229 318.993 472.986 310.076C486.638 298.753 490.025 279.587 480.875 265.389C465.527 241.582 423.094 235.665 412.364 210.114C406.462 196.05 412.525 180.381 421.107 167.336C439.511 139.357 470.368 114.806 471.993 82.8198C473.111 60.8499 458.278 38.8532 435.341 28.4563C411.303 17.5496 377.967 18.9269 360.235 36.9527C341.974 55.524 309.882 62.6699 282.376 61.7174Z" fill="#587EEC"/>
<path d="M108.399 324.216C108.399 324.216 83.7888 305.622 79.1397 281.971C77.2543 272.037 72.1972 262.982 64.7269 256.164C61.1532 252.957 57.2935 250.083 53.1958 247.578" stroke="#9AB1F3" stroke-width="2" stroke-miterlimit="10"/>
<path d="M50.1842 232.678C52.341 235.594 53.3165 247.95 53.3165 247.95C53.3165 247.95 41.7854 243.411 39.6241 240.499C38.5863 239.1 38.1473 237.346 38.4037 235.623C38.66 233.9 39.5907 232.349 40.9911 231.312C42.3915 230.275 44.1467 229.836 45.8708 230.093C47.5948 230.349 49.1464 231.279 50.1842 232.678V232.678Z" fill="#587EEC"/>
<path d="M70.8651 242.373C71.0889 245.991 65.1958 256.893 65.1958 256.893C65.1958 256.893 57.9782 246.814 57.75 243.196C57.6632 241.471 58.2599 239.782 59.4108 238.494C60.5618 237.206 62.1742 236.423 63.8988 236.315C65.6233 236.206 67.3211 236.782 68.6242 237.916C69.9273 239.05 70.7309 240.651 70.8607 242.373H70.8651Z" fill="#587EEC"/>
<path d="M90.9103 270.241C89.2816 273.479 78.6812 279.918 78.6812 279.918C78.6812 279.918 77.5491 267.576 79.1778 264.339C79.9796 262.816 81.3475 261.669 82.987 261.144C84.6266 260.619 86.4068 260.759 87.9445 261.532C89.4822 262.306 90.6545 263.652 91.2092 265.281C91.7639 266.91 91.6566 268.691 90.9103 270.241V270.241Z" fill="#587EEC"/>
<path d="M101.334 294.729C100.273 298.195 90.917 306.329 90.917 306.329C90.917 306.329 87.7087 294.358 88.7691 290.888C89.2789 289.222 90.4296 287.828 91.9682 287.011C93.5068 286.193 95.3072 286.02 96.9734 286.53C98.6396 287.039 100.035 288.189 100.853 289.727C101.671 291.264 101.844 293.064 101.334 294.729V294.729Z" fill="#587EEC"/>
<path d="M54.5297 265.658C58.1093 266.141 69.4257 261.034 69.4257 261.034C69.4257 261.034 59.8768 253.128 56.2792 252.645C54.5525 252.413 52.8044 252.876 51.4193 253.932C50.0343 254.989 49.1259 256.552 48.8939 258.277C48.6619 260.003 49.1253 261.75 50.1822 263.134C51.2391 264.518 52.8029 265.426 54.5297 265.658V265.658Z" fill="#587EEC"/>
<path d="M67.0805 294.147C70.6602 293.535 79.9092 285.284 79.9092 285.284C79.9092 285.284 68.4273 280.598 64.8521 281.211C63.9961 281.351 63.1764 281.659 62.4403 282.118C61.7041 282.576 61.0662 283.176 60.5632 283.882C60.0602 284.588 59.7021 285.387 59.5097 286.232C59.3172 287.078 59.2942 287.953 59.4419 288.807C59.5896 289.661 59.9052 290.477 60.3703 291.209C60.8355 291.941 61.4411 292.573 62.1521 293.07C62.8631 293.566 63.6655 293.917 64.5129 294.102C65.3603 294.287 66.236 294.303 67.0894 294.147H67.0805Z" fill="#587EEC"/>
<path d="M83.0768 320.169C86.7057 320.169 97.221 313.6 97.221 313.6C97.221 313.6 86.7012 307.04 83.0723 307.04C81.3301 307.04 79.6594 307.731 78.4275 308.962C77.1956 310.193 76.5035 311.863 76.5035 313.604C76.5035 315.345 77.1956 317.015 78.4275 318.246C79.6594 319.477 81.3301 320.169 83.0723 320.169H83.0768Z" fill="#587EEC"/>
<path d="M347.478 163.397C347.478 163.397 362.647 136.544 385.513 128.808C395.114 125.621 403.423 119.409 409.192 111.104C411.898 107.133 414.233 102.923 416.168 98.5248" stroke="#9AB1F3" stroke-width="2" stroke-miterlimit="10"/>
<path d="M430.521 93.6058C427.917 96.1279 415.795 98.7394 415.795 98.7394C415.795 98.7394 418.771 86.7103 421.375 84.1837C422.632 83.0076 424.301 82.3718 426.022 82.4131C427.744 82.4545 429.38 83.1698 430.579 84.4049C431.778 85.6401 432.444 87.2964 432.433 89.0172C432.422 90.7381 431.735 92.3858 430.521 93.6058Z" fill="#587EEC"/>
<path d="M423.666 115.352C420.086 116.059 408.51 111.667 408.51 111.667C408.51 111.667 417.549 103.171 421.106 102.478C421.96 102.288 422.844 102.271 423.705 102.428C424.565 102.584 425.386 102.911 426.119 103.389C426.852 103.867 427.482 104.486 427.972 105.21C428.462 105.935 428.802 106.75 428.972 107.607C429.143 108.465 429.14 109.348 428.964 110.204C428.789 111.061 428.444 111.874 427.949 112.595C427.455 113.317 426.822 113.932 426.086 114.406C425.35 114.879 424.528 115.201 423.666 115.352V115.352Z" fill="#587EEC"/>
<path d="M398.717 138.909C395.289 137.724 387.499 128.083 387.499 128.083C387.499 128.083 399.58 125.32 403.017 126.505C403.842 126.778 404.605 127.213 405.262 127.784C405.918 128.355 406.454 129.05 406.839 129.83C407.224 130.609 407.45 131.458 407.505 132.325C407.559 133.193 407.44 134.063 407.155 134.884C406.871 135.706 406.425 136.463 405.846 137.111C405.266 137.759 404.563 138.285 403.778 138.66C402.993 139.034 402.141 139.249 401.272 139.292C400.404 139.335 399.535 139.205 398.717 138.909V138.909Z" fill="#587EEC"/>
<path d="M375.789 152.486C372.21 151.895 362.92 143.69 362.92 143.69C362.92 143.69 374.371 138.923 377.946 139.513C379.667 139.796 381.205 140.75 382.221 142.166C383.238 143.582 383.65 145.344 383.367 147.064C383.084 148.783 382.129 150.32 380.712 151.336C379.295 152.352 377.533 152.764 375.812 152.481L375.789 152.486Z" fill="#587EEC"/>
<path d="M398.402 102.263C398.398 105.89 404.98 116.412 404.98 116.412C404.98 116.412 411.553 105.903 411.553 102.281C411.576 101.405 411.423 100.533 411.104 99.7168C410.784 98.9006 410.304 98.1566 409.692 97.5288C409.08 96.901 408.348 96.402 407.54 96.0614C406.732 95.7207 405.864 95.5451 404.987 95.5451C404.11 95.5451 403.242 95.7207 402.433 96.0614C401.625 96.402 400.894 96.901 400.282 97.5288C399.67 98.1566 399.19 98.9006 398.87 99.7168C398.55 100.533 398.397 101.405 398.42 102.281L398.402 102.263Z" fill="#587EEC"/>
<path d="M371.81 118.478C372.893 121.939 382.307 130.011 382.307 130.011C382.307 130.011 385.439 118.017 384.348 114.556C383.781 112.953 382.615 111.631 381.093 110.87C379.571 110.109 377.814 109.968 376.19 110.476C374.566 110.984 373.203 112.102 372.388 113.595C371.572 115.087 371.368 116.838 371.819 118.478H371.81Z" fill="#587EEC"/>
<path d="M348.153 137.783C348.636 141.36 356.547 150.916 356.547 150.916C356.547 150.916 361.653 139.625 361.17 136.034C361.074 135.164 360.805 134.322 360.378 133.557C359.952 132.793 359.377 132.121 358.687 131.582C357.997 131.043 357.206 130.647 356.361 130.417C355.516 130.188 354.633 130.13 353.765 130.247C352.897 130.363 352.061 130.652 351.307 131.096C350.552 131.541 349.894 132.131 349.371 132.833C348.848 133.535 348.471 134.335 348.262 135.185C348.052 136.035 348.015 136.918 348.153 137.783V137.783Z" fill="#587EEC"/>
<path opacity="0.25" d="M430.521 93.6058C427.917 96.1279 415.795 98.7394 415.795 98.7394C415.795 98.7394 418.771 86.7103 421.375 84.1837C422.632 83.0076 424.301 82.3718 426.022 82.4131C427.744 82.4545 429.38 83.1698 430.579 84.4049C431.778 85.6401 432.444 87.2964 432.433 89.0172C432.422 90.7381 431.735 92.3858 430.521 93.6058Z" fill="black"/>
<path opacity="0.25" d="M423.666 115.352C420.086 116.059 408.51 111.667 408.51 111.667C408.51 111.667 417.549 103.171 421.106 102.478C421.96 102.288 422.844 102.271 423.705 102.428C424.565 102.584 425.386 102.911 426.119 103.389C426.852 103.867 427.482 104.486 427.972 105.21C428.462 105.935 428.802 106.75 428.972 107.607C429.143 108.465 429.14 109.348 428.964 110.204C428.789 111.061 428.444 111.874 427.949 112.595C427.455 113.317 426.822 113.932 426.086 114.406C425.35 114.879 424.528 115.201 423.666 115.352V115.352Z" fill="black"/>
<path opacity="0.25" d="M398.717 138.909C395.289 137.724 387.499 128.083 387.499 128.083C387.499 128.083 399.58 125.32 403.017 126.505C403.842 126.778 404.605 127.213 405.262 127.784C405.918 128.355 406.454 129.05 406.839 129.83C407.224 130.609 407.45 131.458 407.505 132.325C407.559 133.193 407.44 134.063 407.155 134.884C406.871 135.706 406.425 136.463 405.846 137.111C405.266 137.759 404.563 138.285 403.778 138.66C402.993 139.034 402.141 139.249 401.272 139.292C400.404 139.335 399.535 139.205 398.717 138.909V138.909Z" fill="black"/>
<path opacity="0.25" d="M375.789 152.486C372.21 151.895 362.92 143.69 362.92 143.69C362.92 143.69 374.371 138.923 377.946 139.513C379.667 139.796 381.205 140.75 382.221 142.166C383.238 143.582 383.65 145.344 383.367 147.064C383.084 148.783 382.129 150.32 380.712 151.336C379.295 152.352 377.533 152.764 375.812 152.481L375.789 152.486Z" fill="black"/>
<path opacity="0.25" d="M398.402 102.263C398.398 105.89 404.98 116.412 404.98 116.412C404.98 116.412 411.553 105.903 411.553 102.281C411.576 101.405 411.423 100.533 411.104 99.7168C410.784 98.9006 410.304 98.1566 409.692 97.5288C409.08 96.901 408.348 96.402 407.54 96.0614C406.732 95.7207 405.864 95.5451 404.987 95.5451C404.11 95.5451 403.242 95.7207 402.433 96.0614C401.625 96.402 400.894 96.901 400.282 97.5288C399.67 98.1566 399.19 98.9006 398.87 99.7168C398.55 100.533 398.397 101.405 398.42 102.281L398.402 102.263Z" fill="black"/>
<path opacity="0.25" d="M371.81 118.478C372.893 121.939 382.307 130.011 382.307 130.011C382.307 130.011 385.439 118.017 384.348 114.556C383.781 112.953 382.615 111.631 381.093 110.87C379.571 110.109 377.814 109.968 376.19 110.476C374.566 110.984 373.203 112.102 372.388 113.595C371.572 115.087 371.368 116.838 371.819 118.478H371.81Z" fill="black"/>
<path opacity="0.25" d="M348.153 137.783C348.636 141.36 356.547 150.916 356.547 150.916C356.547 150.916 361.653 139.625 361.17 136.034C361.074 135.164 360.805 134.322 360.378 133.557C359.952 132.793 359.377 132.121 358.687 131.582C357.997 131.043 357.206 130.647 356.361 130.417C355.516 130.188 354.633 130.13 353.765 130.247C352.897 130.363 352.061 130.652 351.307 131.096C350.552 131.541 349.894 132.131 349.371 132.833C348.848 133.535 348.471 134.335 348.262 135.185C348.052 136.035 348.015 136.918 348.153 137.783V137.783Z" fill="black"/>
<path d="M348.351 162.865C348.351 162.865 351.331 132.17 369.077 115.848C376.562 109.046 381.64 100.002 383.548 90.0731C384.417 85.3528 384.85 80.5628 384.841 75.7634" stroke="#9AB1F3" stroke-width="2" stroke-miterlimit="10"/>
<path d="M395.965 65.4067C394.623 68.7695 384.582 76.0674 384.582 76.0674C384.582 76.0674 382.425 63.8639 383.781 60.5012C384.434 58.8864 385.702 57.597 387.306 56.9164C388.91 56.2359 390.719 56.22 392.334 56.8723C393.95 57.5246 395.24 58.7916 395.921 60.3946C396.602 61.9977 396.618 63.8054 395.965 65.4201V65.4067Z" fill="#587EEC"/>
<path d="M398.518 88.0877C395.552 90.1715 383.17 90.8557 383.17 90.8557C383.17 90.8557 387.994 79.4348 390.961 77.3509C391.664 76.8247 392.466 76.4449 393.319 76.234C394.173 76.0231 395.059 75.9855 395.927 76.1233C396.795 76.261 397.627 76.5714 398.372 77.0361C399.118 77.5008 399.763 78.1103 400.269 78.8285C400.774 79.5467 401.131 80.359 401.317 81.2174C401.503 82.0757 401.514 82.9626 401.351 83.8256C401.188 84.6886 400.853 85.51 400.367 86.2413C399.88 86.9727 399.252 87.599 398.518 88.0832V88.0877Z" fill="#587EEC"/>
<path d="M385.248 119.739C381.633 120.043 370.598 114.373 370.598 114.373C370.598 114.373 380.532 106.949 384.147 106.645C385.884 106.5 387.607 107.049 388.937 108.173C390.268 109.296 391.098 110.902 391.244 112.638C391.39 114.373 390.84 116.095 389.716 117.425C388.591 118.755 386.984 119.584 385.248 119.73V119.739Z" fill="#587EEC"/>
<path d="M369.805 141.423C366.292 142.317 354.461 138.619 354.461 138.619C354.461 138.619 362.995 129.626 366.507 128.714C368.193 128.277 369.984 128.527 371.486 129.41C372.988 130.292 374.077 131.735 374.514 133.42C374.952 135.106 374.701 136.895 373.818 138.396C372.935 139.897 371.491 140.986 369.805 141.423V141.423Z" fill="#587EEC"/>
<path d="M370.12 86.3526C371.588 89.6662 381.852 96.6377 381.852 96.6377C381.852 96.6377 383.597 84.3671 382.13 81.0535C381.398 79.5032 380.089 78.3002 378.482 77.7016C376.875 77.103 375.098 77.1562 373.529 77.8499C371.961 78.5437 370.727 79.8228 370.089 81.4141C369.452 83.0054 369.463 84.7826 370.12 86.366V86.3526Z" fill="#587EEC"/>
<path d="M352.381 111.94C354.775 114.663 366.651 118.232 366.651 118.232C366.651 118.232 364.646 106.002 362.252 103.278C361.687 102.617 360.996 102.074 360.219 101.681C359.442 101.289 358.595 101.055 357.727 100.992C356.859 100.93 355.987 101.041 355.162 101.318C354.337 101.595 353.576 102.033 352.922 102.607C352.268 103.181 351.734 103.879 351.353 104.661C350.971 105.443 350.748 106.292 350.698 107.161C350.648 108.029 350.771 108.899 351.059 109.719C351.348 110.54 351.798 111.295 352.381 111.94V111.94Z" fill="#587EEC"/>
<path d="M338.559 139.182C340.457 142.268 351.558 147.79 351.558 147.79C351.558 147.79 351.652 135.399 349.768 132.309C348.831 130.882 347.374 129.877 345.706 129.506C344.039 129.134 342.293 129.427 340.838 130.321C339.383 131.215 338.333 132.64 337.912 134.294C337.491 135.949 337.731 137.702 338.582 139.182H338.559Z" fill="#587EEC"/>
<path d="M325.53 42.6587C326.273 39.9353 327.168 37.1986 327.794 34.4395C327.042 37.1986 326.143 39.9443 325.53 42.6587Z" fill="url(#paint0_linear_41_72)"/>
<path d="M322.199 68.8902C322.137 68.7829 322.092 68.6755 322.043 68.5772C322.043 68.5325 321.998 68.4967 321.98 68.452C321.882 68.4979 321.782 68.5383 321.68 68.5727C321.483 68.6487 321.282 68.7203 321.076 68.7784C320.87 68.8365 320.785 68.8678 320.629 68.9036C320.499 68.9483 320.366 68.9827 320.23 69.0065L320.266 69.087C320.432 69.0512 320.593 69.0199 320.758 68.9752L320.803 69.5297C320.991 69.5297 321.166 69.5028 321.336 69.5028C321.416 69.4984 321.497 69.4984 321.577 69.5028C321.926 69.5028 322.231 69.5028 322.472 69.5028C322.378 69.3016 322.28 69.0914 322.199 68.8902ZM413.034 213.387C410.931 210.556 406.734 180.175 406.734 180.175C406.734 180.175 398.478 158.572 400.729 149.95C402.98 141.329 394.581 119.269 394.581 119.269C394.581 119.269 389.032 116.859 388.732 113.282C388.732 113.282 366.077 106.127 365.017 100.761C364.158 96.3604 350.107 93.2033 345.06 92.2061C343.521 85.9992 341.973 80.2083 340.832 77.0467C340.523 76.0629 340.232 75.2133 339.963 74.5425C338.035 69.6236 332.075 69.1764 327.752 69.5699C327.565 68.7315 327.217 67.9373 326.728 67.2312C326.656 66.9884 326.514 66.7721 326.32 66.6096C326.228 66.5306 326.129 66.4588 326.025 66.3949C325.947 66.25 325.844 66.1199 325.721 66.0104C325.598 65.8998 325.463 65.8038 325.318 65.7242C325.214 65.6679 325.106 65.6187 324.996 65.5766C324.737 65.4779 324.468 65.4045 324.195 65.3575C323.876 65.292 323.553 65.2501 323.228 65.2323C324.018 64.887 324.722 64.3726 325.291 63.7253C325.678 63.2709 325.966 62.7409 326.137 62.1691C326.279 61.6936 326.342 61.1982 326.325 60.7024C326.209 60.9067 326.074 61.0998 325.922 61.2792C326.11 59.2982 325.063 57.2859 324.463 55.3139C323.737 52.7465 323.602 50.048 324.07 47.4212C324.669 43.4592 326.155 39.4524 327.162 35.4189C327.164 35.3966 327.164 35.3741 327.162 35.3518C327.69 33.3487 328.016 31.2979 328.137 29.2299C328.312 25.0578 327.242 20.8945 325.524 17.0935C323.998 13.7263 321.747 10.4127 318.302 9.0443C315.742 8.01131 312.874 8.17677 310.118 8.00684C303.934 7.62227 298.036 5.44898 292.157 3.47245C286.277 1.49592 280.227 -0.301734 274.039 0.0425936C267.85 0.386921 261.483 3.3696 258.66 8.84306C257.765 10.5513 257.25 12.4518 256.181 14.0572C254.176 17.0846 250.587 18.6005 247.594 20.6888C244.6 22.7771 241.965 25.7419 240.882 29.2791C240.291 31.1848 240.207 33.2118 240.64 35.1595V35.1595C240.738 35.5994 240.863 36.0325 241.016 36.4563C241.441 37.6379 242.103 38.72 242.963 39.6358C243.611 40.3126 244.356 40.8898 245.173 41.3485V41.3485C246.2 41.9171 247.298 42.3443 248.439 42.6185C248.399 42.7526 248.359 42.8957 248.314 43.0343C248.243 43.2624 248.18 43.4815 248.113 43.7275C247.965 44.2775 247.826 44.8365 247.71 45.3999C247.705 45.44 247.705 45.4805 247.71 45.5206C247.161 48.0642 246.885 50.6591 246.887 53.2613C246.886 54.492 246.949 55.7219 247.075 56.9461V56.9461C248.865 75.0926 263.855 89.4067 282.375 90.3369C283.01 90.3682 283.65 90.3861 284.299 90.3861C284.594 90.3861 284.885 90.3861 285.194 90.3861C285.485 90.7706 285.771 91.1642 286.044 91.5487C286.317 91.9333 286.568 92.3268 286.805 92.7114L286.156 92.0406L285.507 91.4459C285.331 91.6871 285.135 91.913 284.921 92.1211C284.498 91.9724 284.066 91.8499 283.628 91.7544V91.7544C281.771 91.343 278.943 91.191 275.22 92.3134C271.797 93.3374 267.613 95.4437 262.718 99.4459L238.864 113.756L225.959 121.599L221.31 132.957C221.31 132.957 217.815 146.453 213.927 161.917C213.775 161.961 213.627 162.006 213.479 162.06C213.164 162.024 212.848 162.006 212.531 162.006C210.275 162.001 208.104 162.87 206.476 164.43C204.847 165.99 203.886 168.12 203.796 170.373C196.064 179.764 195.625 189.154 197.442 193.465C197.607 193.869 197.814 194.254 198.06 194.614C199.25 196.332 201.474 200.759 203.729 205.476C203.671 205.865 203.635 206.192 203.617 206.438C203.613 206.518 203.613 206.599 203.617 206.679C203.617 206.679 204.96 226.941 200.485 232.75C199.505 234.015 199.653 235.679 200.485 237.521C203.483 244.148 215.336 252.998 215.336 252.998C215.336 252.998 229.552 252.922 237.472 252.059C237.45 252.855 237.432 253.646 237.414 254.42C237.235 262.237 237.235 268.788 237.235 268.788L236.94 276.985C236.94 276.985 234.255 294.259 232.913 299.022C232.067 302.009 233.042 329.667 233.892 350H373.957C375.604 337.971 373.281 301.423 373.281 301.423C373.281 301.423 371.076 291.974 370.995 283.737C370.991 283.728 370.988 283.718 370.988 283.708C370.988 283.698 370.991 283.688 370.995 283.679C370.995 282.959 370.995 282.257 371.022 281.568L372.038 281.533L373.863 281.47H374.029C374.029 281.47 374.074 281.3 374.176 281.023C374.418 280.332 374.747 279.675 375.156 279.069C375.935 277.919 377.152 276.792 378.982 276.716C379.993 276.676 381.56 275.858 383.327 274.65C383.339 274.653 383.351 274.653 383.363 274.65C388.119 271.435 394.406 265.501 395.932 264.526C398.031 263.185 408.081 254.241 408.081 254.241C408.081 254.241 409.58 252.345 411.177 250.06L411.235 249.98C413.222 247.118 415.334 243.697 414.815 242.619C413.92 240.687 415.415 236.068 415.415 236.068C420.082 227.531 415.137 216.218 413.034 213.387ZM326.508 75.8438C326.551 75.9773 326.578 76.1154 326.589 76.2552C326.477 76.1077 326.365 75.9511 326.253 75.808L326.146 75.665L326.07 75.5576L326.24 75.3251C326.24 75.3251 326.24 75.3251 326.24 75.3564C326.358 75.5014 326.449 75.6665 326.508 75.8438V75.8438ZM325.005 71.8818C324.517 71.9802 324.132 72.0696 323.882 72.1367C323.564 71.5733 323.26 71.0098 322.987 70.4374C323.704 70.8533 324.38 71.337 325.005 71.8818V71.8818ZM324.164 72.5884C324.162 72.5795 324.162 72.5704 324.164 72.5615L324.199 72.5884C324.383 72.7091 324.562 72.8254 324.727 72.9461C324.875 73.0534 325.009 73.1563 325.144 73.2636C325.054 73.4201 324.956 73.5811 324.857 73.7108C324.701 73.4648 324.553 73.2278 324.41 72.9819C324.32 72.8835 324.24 72.7493 324.164 72.5884ZM321.479 67.0702C322.343 66.985 323.214 66.985 324.079 67.0702V67.0702C324.199 67.0702 324.307 67.0925 324.414 67.1104C324.657 67.1479 324.895 67.2093 325.126 67.2938C325.654 68.0331 325.98 68.8981 326.07 69.8024L325.828 69.8382L325.591 69.8829C325.144 69.959 324.696 70.035 324.347 70.1065L323.9 70.2004C323.304 70.3301 322.96 70.4285 322.946 70.433C322.888 70.3122 322.83 70.2004 322.767 70.0842C322.669 69.8919 322.566 69.6951 322.477 69.5028C322.387 69.3105 322.271 69.0914 322.177 68.8902C322.114 68.7829 322.069 68.6755 322.02 68.5772C322.02 68.5325 321.975 68.4967 321.958 68.452C321.932 68.4045 321.909 68.3552 321.89 68.3044C321.617 67.7499 321.367 67.1954 321.125 66.6498C321.098 66.5962 321.076 66.538 321.054 66.4844L321.394 66.462V66.5783L321.479 67.0702ZM214.719 344.473C214.683 337.814 214.2 330.61 212.857 323.849C212.285 320.974 211.694 318.098 211.094 315.272C210.942 314.566 210.794 313.868 210.647 313.17L209.269 313.354H209.143C205.385 295.641 201.456 280.034 201.456 280.034C201.456 280.034 193.652 250.257 194.556 247.882C194.672 247.574 194.525 246.742 194.194 245.521C192.305 238.751 184.421 220.095 181.665 213.718C181.665 213.691 181.642 213.66 181.633 213.637C181.186 212.569 180.864 211.849 180.765 211.639L181.414 202.123L181.45 201.55L181.535 200.334L181.499 200.303L181.535 199.739C181.535 199.739 174.725 194.158 163.189 190.129C162.741 189.968 162.267 189.812 161.797 189.66C162.375 185.809 163.14 181.463 164.138 177.228C164.232 176.803 164.334 176.392 164.442 175.976C164.536 175.56 164.643 175.158 164.751 174.751C164.921 174.089 165.104 173.436 165.292 172.792C165.914 172.595 166.527 172.376 167.131 172.144L167.364 172.054C174.805 169.16 180.946 163.67 184.648 156.599C188.35 149.528 189.363 141.357 187.5 133.597V133.597C186.437 129.196 184.475 125.062 181.736 121.456C181.53 121.179 181.311 120.902 181.092 120.629C180.873 120.356 180.609 120.052 180.363 119.775C181.656 116.837 183.182 114.042 183.307 111.184C183.329 110.822 183.329 110.46 183.307 110.098V110.053C183.141 108.215 182.327 106.355 180.43 104.401C177.66 101.534 173.718 100.081 169.776 99.3833C165.833 98.6857 161.815 98.6678 157.851 98.1983C151.277 97.4112 144.874 95.3855 138.301 94.7639C130.205 94.0147 122.053 95.4024 114.662 98.7885C109.771 101.024 104.817 104.933 104.522 110.294C104.281 114.726 107.368 118.974 106.589 123.352C105.815 127.654 101.43 131.039 101.815 135.39C101.963 137.089 102.835 138.61 103.927 139.965C104.303 140.412 104.701 140.859 105.113 141.306C106.706 142.992 108.46 144.611 109.35 146.735C109.386 146.824 109.422 146.914 109.453 147.003C110.209 149.101 109.869 151.752 107.999 152.955C108.009 152.963 108.017 152.974 108.021 152.987V152.987C108.048 153.022 108.075 153.049 108.097 153.085C108.1 153.078 108.1 153.07 108.097 153.063C108.761 153.848 109.654 154.405 110.652 154.655L111.033 154.771C110.724 155.106 110.433 155.455 110.138 155.822L109.945 156.077C109.452 156.739 109.004 157.434 108.603 158.156C108.375 158.558 108.156 158.961 107.972 159.363C107.359 160.59 106.915 161.894 106.652 163.24C106.173 166.201 106.849 169.286 106.124 172.184C105.229 175.761 102.397 178.507 100.799 181.83C97.7744 188.09 99.4882 195.437 100.097 202.351C100.925 211.741 99.5821 221.172 98.2442 230.501C97.5343 235.461 96.8243 240.426 96.1143 245.396C94.3245 257.869 92.5346 270.343 90.7448 282.816C90.0915 287.386 89.3174 292.207 86.2701 295.735H86.3015C86.3015 295.735 86.3015 295.762 86.2701 295.771C87.1849 296.17 88.1578 296.421 89.1518 296.513V296.513C93.1297 296.911 97.3448 294.988 100.925 292.886C103.759 291.249 106.444 289.365 108.948 287.256C108.581 288.598 108.187 290.06 107.766 291.634C107.768 291.649 107.768 291.664 107.766 291.679V291.679C102.714 310.908 94.5885 346.159 94.5885 346.159C94.5885 346.159 93.8502 347.693 92.8926 349.978H219.077C217.6 348.189 216.227 346.476 215.153 345.094L214.719 344.473ZM121.289 166.675C121.32 166.621 121.342 166.572 121.374 166.523C121.374 166.666 121.374 166.804 121.374 166.939C121.374 167.073 121.374 167.193 121.374 167.319C121.374 167.444 121.374 167.43 121.374 167.493C121.374 167.556 121.374 167.493 121.374 167.493C121.374 167.676 121.333 167.86 121.302 168.043C121.302 168.043 121.302 168.065 121.302 168.083L121.749 168.249L122.268 168.463C125.335 169.674 128.44 170.769 131.585 171.75C131.907 171.853 132.233 171.951 132.56 172.045L132.627 172.6C132.708 173.168 132.784 173.745 132.855 174.321C132.855 174.321 132.855 174.348 132.855 174.366C133.057 175.963 133.254 177.555 133.428 179.111C133.428 179.111 125.213 175.98 125.316 180.734C125.311 180.819 125.311 180.904 125.316 180.989C125.307 181.102 125.307 181.216 125.316 181.329C125.392 185.031 126.551 187.227 126.783 188.354C126.769 188.401 126.745 188.443 126.712 188.479C126.513 188.911 126.445 189.391 126.515 189.861C126.507 190.661 126.57 191.46 126.703 192.249C126.461 192.396 126.224 192.544 125.987 192.696C125.808 192.808 125.638 192.933 125.463 193.058C124.366 189.253 122.93 185.553 121.172 182.004C119.942 179.473 118.559 176.835 118.572 174.058C118.572 173.879 118.572 173.695 118.595 173.512C118.645 172.707 118.798 171.912 119.051 171.146C119.154 170.856 119.266 170.57 119.391 170.288C119.684 169.618 120.011 168.965 120.371 168.329C120.604 167.909 120.85 167.493 121.087 167.073C121.163 166.947 121.235 166.818 121.306 166.693L121.289 166.675ZM322.199 68.8902C322.137 68.7829 322.092 68.6755 322.043 68.5772C322.043 68.5325 321.998 68.4967 321.98 68.452C321.882 68.4979 321.782 68.5383 321.68 68.5727C321.483 68.6487 321.282 68.7203 321.076 68.7784C320.87 68.8365 320.785 68.8678 320.629 68.9036L320.23 69.0065L320.266 69.087C320.432 69.0512 320.593 69.0199 320.758 68.9752L320.803 69.5297C320.991 69.5297 321.166 69.5028 321.336 69.5028H321.577C321.926 69.5028 322.231 69.5028 322.472 69.5028C322.378 69.3016 322.28 69.0914 322.199 68.8902Z" fill="url(#paint1_linear_41_72)"/>
<path d="M224.43 134.572L221.745 135.757C221.745 135.757 204.245 203.701 204.245 209.192C204.245 214.684 241.353 245.24 241.353 245.24L247.143 206.183C247.143 206.183 238.829 116.618 224.43 134.572Z" fill="#E8F5FF"/>
<path d="M305.827 112.96L290.322 104.875C289.454 101.175 287.913 97.666 285.776 94.5225C283.507 91.2491 280.492 88.0339 276.733 86.357C267.233 82.0999 316.915 59.7544 316.915 59.7544C317.698 62.4387 318.619 65.0806 319.676 67.6694C322.235 73.9836 326.482 82.1491 331.954 84.4744C341.257 88.4319 305.827 112.96 305.827 112.96Z" fill="#FFB0B1"/>
<path opacity="0.1" d="M319.676 67.6694C317.553 75.1306 313.139 81.7368 307.056 86.5551C300.973 91.3734 293.529 94.1604 285.776 94.5225C283.507 91.2491 280.492 88.0339 276.733 86.357C267.233 82.0999 316.915 59.7544 316.915 59.7544C317.698 62.4387 318.619 65.0806 319.676 67.6694V67.6694Z" fill="black"/>
<path d="M321.071 56.387C321.073 63.7046 318.903 70.8582 314.837 76.9433C310.77 83.0284 304.989 87.7715 298.224 90.5729C291.46 93.3742 284.016 94.1078 276.835 92.681C269.653 91.2542 263.056 87.731 257.878 82.557C252.7 77.3831 249.174 70.7908 247.746 63.6139C246.317 56.437 247.05 48.998 249.853 42.2376C252.655 35.4771 257.4 29.6991 263.489 25.6342C269.577 21.5692 276.735 19.4 284.057 19.4009C288.924 19.3784 293.747 20.3197 298.247 22.1704C302.748 24.0211 306.837 26.7446 310.279 30.1835C313.72 33.6224 316.446 37.7086 318.298 42.2062C320.151 46.7037 321.093 51.5234 321.071 56.387V56.387Z" fill="#FFB0B1"/>
<path d="M326.416 108.211L316.321 131.75L307.416 147.374H278.913L270.599 126.013L273.969 103.859H295.738L309.792 103.068L314.54 101.485L317.601 103.22L326.416 108.211Z" fill="#575A89"/>
<path opacity="0.1" d="M322.939 76.8321C322.939 76.8321 329.234 78.1737 323.596 82.793C317.958 87.4124 298.507 102.102 298.507 102.102C298.507 102.102 305.34 108.184 303.926 115.307L326.563 102.697L330.59 82.5202C330.59 82.5202 331.042 76.4565 322.939 76.8321Z" fill="black"/>
<path opacity="0.1" d="M302.959 102.102L288.56 104.477C288.56 104.477 291.531 115.455 290.046 118.572C290.001 118.669 289.963 118.769 289.934 118.871L284.059 134.742L288.462 147.205L303.702 126.433L298.507 118.572C298.507 118.572 303.997 111.301 307.264 108.779C310.53 106.257 302.959 102.102 302.959 102.102Z" fill="black"/>
<path d="M302.959 101.49L288.56 103.86C288.56 103.86 291.531 114.838 290.046 117.955C290.001 118.052 289.963 118.152 289.934 118.254L284.059 134.125L288.462 146.588L303.702 125.803L298.507 117.941C298.507 117.941 303.997 110.67 307.264 108.148C310.53 105.626 302.959 101.49 302.959 101.49Z" fill="#DCE6F2"/>
<path d="M323.543 75.647C323.543 75.647 329.838 76.9885 324.196 81.6079C318.553 86.2273 298.507 102.102 298.507 102.102C298.507 102.102 305.93 106.999 304.521 114.118L327.158 101.512L331.185 81.3351C331.185 81.3351 331.633 75.2714 323.543 75.647Z" fill="#575A89"/>
<path opacity="0.1" d="M286.766 95.9221C286.766 95.9221 288.14 98.4889 294.203 103.117C294.203 103.117 284.108 108.483 287.97 116.027L272.528 112.003L270.152 104.584L286.766 95.9221Z" fill="black"/>
<path d="M286.171 95.3319C286.171 95.3319 287.544 97.8987 293.607 102.527C293.607 102.527 283.513 107.866 287.374 115.433L271.937 111.408L269.561 103.994L286.171 95.3319Z" fill="#575A89"/>
<path opacity="0.1" d="M326.416 108.211L316.321 131.75L307.434 147.375H278.913L270.599 126.013L273.964 103.86H280.018C279.92 109.029 281.808 115.102 281.687 117.36C281.481 121.072 287.227 141.096 287.227 141.096C287.227 141.096 299.25 121.662 303.998 119.931C306.982 118.845 313.305 109.803 317.596 103.22L326.416 108.211Z" fill="black"/>
<path d="M366.181 232.084L365.157 233.371C365.157 233.371 372.58 270.608 370.526 279.064C370.177 280.588 369.978 282.143 369.931 283.706V283.773C369.568 292.377 372.168 303.543 372.168 303.543C372.168 303.543 374.244 336.455 373.063 349.991H234.072C233.258 329.975 232.381 304.044 233.177 301.168C234.52 296.424 237.205 279.212 237.205 279.212L237.5 271.055C237.5 271.055 237.5 263.171 237.742 254.389C237.844 250.44 237.997 246.295 238.216 242.619C238.498 237.995 238.892 234.1 239.433 232.186C239.767 230.736 239.958 229.256 240.006 227.768C240.006 227.63 240.006 227.487 240.033 227.343C240.033 226.896 240.077 226.413 240.095 225.917C240.095 225.778 240.095 225.64 240.095 225.47C240.18 222.59 240.149 219.174 240.055 215.632C240.055 215.44 240.055 215.243 240.055 215.046C239.979 212.39 239.867 209.68 239.742 207.104C239.352 199.055 238.847 192.249 238.847 192.249L221.776 135.726L226.376 124.403L239.142 116.586L262.746 102.344C274.259 92.8858 281.839 94.0217 284.73 95.0591C285.01 95.1549 285.285 95.2668 285.553 95.3945C285.642 95.4392 285.714 95.475 285.781 95.5152C285.873 95.5588 285.961 95.6096 286.045 95.6673V95.6673C285.254 96.0478 284.566 96.6139 284.041 97.3174C283.449 98.1179 283.027 99.031 282.801 100C282.65 100.601 282.544 101.213 282.483 101.829C282.425 102.478 282.403 103.149 282.403 103.824C282.435 105.305 282.562 106.782 282.783 108.246C282.783 108.273 282.783 108.309 282.783 108.345C282.931 109.391 283.114 110.415 283.293 111.377C283.291 111.393 283.291 111.41 283.293 111.426C283.499 112.548 283.705 113.586 283.844 114.48C283.87 114.641 283.893 114.789 283.915 114.927C284.014 115.518 284.06 116.117 284.054 116.716C284.104 118.163 284.299 119.601 284.636 121.009C284.752 121.599 284.886 122.23 285.034 122.887C285.235 123.781 285.454 124.756 285.692 125.749C285.821 126.295 285.96 126.858 286.103 127.417C286.157 127.641 286.215 127.864 286.269 128.092L286.358 128.445C287.311 132.233 288.345 136.003 288.981 138.283C289.356 139.625 289.594 140.452 289.594 140.452C289.594 140.452 296.332 129.563 301.711 123.366C301.791 123.276 301.863 123.191 301.939 123.111C302.471 122.498 302.995 121.939 303.496 121.447C304.592 120.356 305.577 119.578 306.369 119.292C306.538 119.23 306.701 119.154 306.857 119.064C309.058 117.816 312.611 113.286 315.936 108.542C316.262 108.094 316.58 107.607 316.902 107.146C317.64 106.082 318.356 105.013 319.032 103.989C319.551 103.207 320.048 102.447 320.518 101.722C322.755 98.243 324.33 95.6494 324.33 95.6494L327.435 95.5108L327.977 95.484H328.339L342.439 94.8311C342.439 94.8311 343.047 94.9339 344.05 95.1352C344.103 95.1352 344.157 95.1351 344.215 95.1709C349.218 96.1637 363.116 99.3073 363.966 103.667C365.004 109.007 387.422 116.13 387.422 116.13C387.718 119.708 393.208 122.064 393.208 122.064C393.208 122.064 401.522 144.021 399.298 152.624C397.101 161.121 405.016 182.138 405.227 182.728L403.71 184.642L366.181 232.084Z" fill="#E8F5FF"/>
<path opacity="0.1" d="M322.934 75.2715C322.934 75.2715 336.657 71.3811 339.776 79.39C342.895 87.399 349.871 119.743 349.871 119.743C349.871 119.743 331.758 123.155 327.01 119.743C324.225 117.718 320.779 116.818 317.358 117.221L307.116 124.193L304.091 123.298C304.091 123.298 320.477 98.9541 324.039 90.6813C327.601 82.4085 328.804 78.7103 322.934 75.2715Z" fill="black"/>
<path d="M322.34 73.4827C322.34 73.4827 336.073 69.5923 339.205 77.6012C342.337 85.6102 349.299 117.955 349.299 117.955C349.299 117.955 331.191 121.367 326.439 117.955C323.656 115.93 320.21 115.029 316.791 115.433L306.54 122.404L303.515 121.51C303.515 121.51 319.901 97.1653 323.463 88.8925C327.025 80.6197 328.211 76.9305 322.34 73.4827Z" fill="#E8F5FF"/>
<path opacity="0.1" d="M230.22 202.516C230.22 202.516 240.462 205.038 242.395 210.825C244.328 216.611 234.824 216.759 234.824 216.759C234.824 216.759 229.034 206.523 230.22 202.516Z" fill="black"/>
<path opacity="0.1" d="M268.37 245.24C268.37 245.24 243.286 296.571 249.076 301.468C254.866 306.364 268.37 245.24 268.37 245.24Z" fill="black"/>
<path opacity="0.1" d="M302.959 207.413C302.959 207.413 323.001 257.273 318.992 264.974C314.982 272.674 327.601 264.974 327.601 264.974L302.959 207.413Z" fill="black"/>
<path d="M330.868 256.665C330.868 256.665 263.176 259.929 282.923 280.996C302.669 302.063 343.192 281.89 343.192 281.89L330.868 256.665Z" fill="#FFB0B1"/>
<path opacity="0.1" d="M321.073 56.387C321.079 61.2389 320.125 66.0443 318.267 70.5267C317.645 70.5983 317.023 70.643 316.424 70.6698C315.529 68.7067 316.008 66.4395 316.025 64.2797C316.043 62.1198 315.247 59.5798 313.166 58.9985C309.018 57.8314 306.154 65.581 302.065 64.1813C298.932 63.117 299.751 58.368 297.948 55.6268C296.521 53.4579 293.661 52.8453 291.437 51.4859C286.708 48.5837 286.851 43.942 284.654 39.5507C282.354 34.9492 277.494 36.3086 273.275 39.023C270.071 41.089 267.306 43.857 263.878 45.5026C260.911 46.9336 257.578 47.4523 254.289 47.5284C252.264 47.6068 250.239 47.3929 248.275 46.8934C250.585 38.2154 255.974 30.6732 263.438 25.6733C270.902 20.6734 279.93 18.5571 288.84 19.7191C297.75 20.8811 305.933 25.2421 311.863 31.9888C317.792 38.7355 321.064 47.4072 321.068 56.387H321.073Z" fill="black"/>
<path d="M273.288 37.8381C270.08 39.9041 267.319 42.6676 263.891 44.3222C260.925 45.7487 257.591 46.2674 254.302 46.3435C250.275 46.4329 245.939 45.7263 243.187 42.8197C240.659 40.1366 240.055 36.0092 241.124 32.4899C242.194 28.9706 244.758 26.0505 247.769 23.9353C250.781 21.8202 254.275 20.3579 256.271 17.3305C257.327 15.7296 257.837 13.8425 258.714 12.1388C261.52 6.68764 267.829 3.73626 273.928 3.36957C280.027 3.00289 286.072 4.81843 291.88 6.78602C297.688 8.75361 303.541 10.918 309.671 11.3249C312.401 11.4948 315.237 11.3249 317.77 12.3579C321.175 13.7396 323.408 17.0443 324.93 20.4071C326.634 24.1992 327.695 28.34 327.516 32.4809C327.14 41.3216 321.296 49.9969 323.865 58.4665C324.545 60.7247 325.82 63.0411 325.14 65.2994C324.146 68.5951 319.891 69.3463 316.45 69.5028C315.555 67.5397 316.034 65.2681 316.052 63.1127C316.07 60.9573 315.273 58.4128 313.197 57.8315C309.045 56.6733 306.181 64.4095 302.1 63.0143C298.99 61.9455 299.796 57.201 297.988 54.4597C296.56 52.2865 293.697 51.6783 291.477 50.3189C286.748 47.4167 286.891 42.775 284.694 38.3837C282.376 33.7598 277.512 35.1193 273.288 37.8381Z" fill="#575A89"/>
<path d="M207.649 208.003L204.235 209.192C204.235 209.192 205.578 229.369 201.103 235.156C196.628 240.942 215.798 255.328 215.798 255.328C215.798 255.328 242.073 255.18 242.816 253.092C243.558 251.004 241.473 215.708 241.473 215.708C241.473 215.708 227.369 210.217 228.555 201.465C228.555 201.465 224.25 222.085 217.87 221.195C211.489 220.305 204.244 214.979 207.649 208.003Z" fill="#E8F5FF"/>
<path opacity="0.1" d="M219.039 227.437C224.014 227.437 228.047 223.752 228.047 219.205C228.047 214.658 224.014 210.972 219.039 210.972C214.065 210.972 210.032 214.658 210.032 219.205C210.032 223.752 214.065 227.437 219.039 227.437Z" fill="black"/>
<path d="M228.887 208.598C228.887 208.598 227.097 154.006 211.516 166.169C195.936 178.333 195.784 192.879 198.75 197.177C201.717 201.474 211.23 222.988 211.23 222.988C212.718 223.85 214.389 224.347 216.107 224.439C217.824 224.531 219.539 224.215 221.11 223.517C222.682 222.819 224.066 221.759 225.148 220.423C226.231 219.087 226.982 217.514 227.339 215.833L228.887 208.598Z" fill="#FFB0B1"/>
<path opacity="0.1" d="M326.081 70.3167C326.008 70.0769 325.868 69.8628 325.678 69.6996C324.908 68.9976 323.253 68.7516 320.756 68.9663L320.859 70.1468C324.188 69.8606 324.846 70.5224 324.931 70.6342V70.746L325.034 70.8936C325.449 71.4511 325.743 72.0891 325.897 72.7667C326.051 73.4444 326.062 74.1467 325.929 74.8288C325.199 78.4733 320.72 81.3755 320.675 81.4068L320.568 81.4694L320.501 81.5722C318.568 84.4386 307.636 92.5281 304.777 94.6209L304.527 94.3347C303.247 95.4437 291.998 105.286 291.389 109.056C290.995 111.421 288.328 112.338 287.362 112.593C286.342 111.819 283.03 109.186 281.308 106.234C279.692 103.457 286.194 98.0373 286.767 95.9222L285.872 95.0055C285.778 95.3453 277.428 103.144 279.751 107.128C281.612 110.326 285.013 113.063 286.203 113.966C285.823 117.418 283.456 137.689 279.818 142.491C275.298 148.461 271.499 178.547 271.92 189.052C272.291 198.384 269.853 216.012 261.709 223.583C260.299 224.951 258.598 225.983 256.733 226.603C254.868 227.222 252.887 227.413 250.938 227.16H250.84H250.742C250.625 227.16 238.812 228.368 228.888 220.005C220.766 213.177 216.166 202.033 215.209 186.874H215.012L214.931 182.46C217.133 182.117 219.116 180.934 220.464 179.16C221.811 177.386 222.418 175.159 222.157 172.947C221.896 170.735 220.787 168.71 219.064 167.298C217.34 165.886 215.136 165.196 212.915 165.374C210.693 165.552 208.627 166.584 207.151 168.252C205.674 169.92 204.902 172.096 204.997 174.321C205.092 176.546 206.046 178.648 207.659 180.185C209.272 181.722 211.418 182.574 213.647 182.563H213.745L213.826 186.95L213.432 186.977C214.417 202.628 219.249 214.205 227.751 221.356C234.213 226.707 242.467 229.407 250.845 228.909C251.439 228.974 252.036 229.006 252.634 229.007C256.474 229.027 260.169 227.542 262.926 224.871C271.504 216.889 274.113 198.612 273.705 188.962C273.258 177.832 277.245 148.828 281.245 143.547C285.165 138.364 287.541 118.169 287.957 114.257C289.375 113.859 292.584 112.602 293.13 109.338C293.523 106.976 301.036 99.7008 305.659 95.6718L305.52 95.5108C308.008 93.6952 315.744 87.9713 319.579 84.2955C320.769 83.1552 321.951 82.0149 323.186 80.9283C324.671 79.6136 326.56 77.5253 327.056 75.0568C327.226 74.242 327.226 73.4012 327.059 72.586C326.891 71.7709 326.558 70.9986 326.081 70.3167V70.3167Z" fill="black"/>
<path d="M286.05 113.684C285.862 113.554 281.406 110.366 279.173 106.529C276.855 102.545 285.205 94.7505 285.294 94.4106L286.189 95.3273C285.621 97.438 279.119 102.862 280.734 105.635C282.77 109.136 287.057 112.199 287.102 112.231L286.05 113.684Z" fill="#353146"/>
<path d="M304.193 95.4884L303.495 94.527C303.639 94.4242 317.693 84.2643 319.908 80.9775L319.98 80.8791L320.083 80.812C320.128 80.7807 324.607 77.883 325.336 74.234C325.471 73.5527 325.46 72.8508 325.306 72.1737C325.152 71.4966 324.857 70.8594 324.441 70.3033L324.338 70.1513V70.044C324.249 69.9277 323.591 69.2704 320.262 69.5565L320.159 68.3715C322.66 68.1569 324.311 68.4028 325.081 69.1049C325.273 69.2697 325.414 69.4851 325.488 69.7265C325.972 70.4064 326.311 71.1781 326.485 71.9941C326.659 72.8101 326.664 73.6531 326.499 74.471C326.003 76.9439 324.119 79.0323 322.629 80.3425C321.398 81.4291 320.213 82.5784 319.027 83.7098C314.53 88.0161 304.686 95.1352 304.193 95.4884Z" fill="#E8F5FF"/>
<path d="M214.352 180.903L213.166 180.925L213.298 188.128L214.484 188.106L214.352 180.903Z" fill="#E8F5FF"/>
<path d="M213.069 181.995C217.851 181.995 221.728 178.121 221.728 173.342C221.728 168.563 217.851 164.689 213.069 164.689C208.287 164.689 204.411 168.563 204.411 173.342C204.411 178.121 208.287 181.995 213.069 181.995Z" fill="#587EEC"/>
<path d="M213.07 180.528C217.041 180.528 220.261 177.311 220.261 173.342C220.261 169.373 217.041 166.156 213.07 166.156C209.099 166.156 205.879 169.373 205.879 173.342C205.879 177.311 209.099 180.528 213.07 180.528Z" fill="#E8F5FF"/>
<path d="M252.069 228.43C251.472 228.431 250.874 228.4 250.28 228.336C241.903 228.829 233.65 226.13 227.186 220.783C218.684 213.628 213.861 202.064 212.867 186.4L214.657 186.288C215.615 201.447 220.215 212.595 228.34 219.419C238.265 227.759 250.074 226.574 250.19 226.574H250.288H250.387C252.336 226.825 254.318 226.634 256.183 226.015C258.048 225.396 259.75 224.364 261.162 222.997C269.301 215.426 271.74 197.798 271.368 188.466C270.921 177.953 274.72 147.866 279.244 141.901C283.204 136.673 285.66 113.112 285.687 112.875L285.754 112.204L286.417 112.088C286.457 112.088 290.323 111.354 290.806 108.465C291.433 104.7 302.664 94.8578 303.939 93.7443L305.107 95.0859C300.467 99.1105 292.954 106.391 292.578 108.756C292.032 112.029 288.824 113.282 287.41 113.675C286.962 117.592 284.604 137.782 280.698 142.965C276.698 148.246 272.711 177.25 273.158 188.381C273.543 198.031 270.961 216.312 262.383 224.289C259.621 226.967 255.918 228.454 252.069 228.43Z" fill="#353146"/>
<g opacity="0.1">
<path opacity="0.1" d="M324.885 45.8158C325.619 43.1059 326.505 40.3781 327.122 37.6324C326.384 40.3915 325.494 43.1059 324.885 45.8158Z" fill="black"/>
<path opacity="0.1" d="M317.4 67.1105C316.505 65.1474 316.984 62.8757 317.002 60.7203C317.02 58.5649 316.223 56.0428 314.147 55.4391C309.994 54.2809 307.131 62.0216 303.05 60.6219C299.918 59.5532 300.745 54.8086 298.938 52.0674C297.51 49.8941 294.651 49.2859 292.431 47.9265C287.697 45.0243 287.84 40.3826 285.648 35.9913C283.343 31.3854 278.489 32.7448 274.264 35.4636C271.056 37.5296 268.295 40.2976 264.868 41.9477C261.901 43.3742 258.567 43.893 255.279 43.969C251.274 44.0629 246.916 43.3519 244.164 40.4452C242.043 38.2093 241.278 34.9315 241.716 31.8594C241.64 32.0695 241.573 32.2797 241.506 32.4899C240.432 36.0092 241.058 40.1456 243.569 42.8197C246.32 45.7264 250.679 46.4329 254.684 46.3435C257.977 46.2675 261.306 45.7487 264.277 44.3222C267.714 42.6677 270.474 39.9041 273.674 37.8382C277.898 35.1193 282.757 33.7599 285.057 38.3658C287.25 42.7571 287.111 47.3988 291.841 50.301C294.078 51.6426 296.92 52.2686 298.351 54.4419C300.141 57.192 299.349 61.9277 302.464 62.9964C306.54 64.3916 309.404 56.6554 313.556 57.8136C315.632 58.395 316.433 60.9439 316.411 63.0948C316.389 65.2457 315.923 67.5219 316.809 69.485C320.25 69.3285 324.506 68.5906 325.503 65.2815C325.641 64.8066 325.704 64.3134 325.691 63.8192C324.237 66.3279 320.496 66.9718 317.4 67.1105Z" fill="black"/>
</g>
<path opacity="0.1" d="M398.27 177.295L403.465 182.787C403.465 182.787 407.622 213.047 409.698 215.878C411.774 218.709 416.679 229.968 412.074 238.425C412.074 238.425 410.589 243.026 411.479 244.953C412.37 246.881 404.803 256.526 404.803 256.526C404.803 256.526 394.856 265.425 392.775 266.762C390.694 268.099 379.714 278.778 376.004 278.926C372.295 279.073 371.082 283.675 371.082 283.675L350.15 284.417C350.15 284.417 338.587 283.813 336.073 285.445C336.073 285.445 337.415 267.791 324.497 256.218L340.972 250.284C340.972 250.284 347.21 247.601 349.139 244.797C350.352 243.078 352.073 241.782 354.061 241.09C354.061 241.09 358.661 237.825 358.808 236.046C358.956 234.266 364.433 232.084 364.433 232.084L361.332 205.633L362.965 161.72C362.965 161.72 368.16 124.926 379.145 127.006C390.131 129.085 398.27 177.295 398.27 177.295Z" fill="black"/>
<path d="M400.06 177.295L405.255 182.787C405.255 182.787 409.412 213.047 411.488 215.878C413.564 218.709 418.468 229.968 413.864 238.425C413.864 238.425 412.383 243.026 413.273 244.953C414.164 246.881 406.593 256.526 406.593 256.526C406.593 256.526 396.646 265.425 394.565 266.762C392.484 268.099 381.503 278.778 377.794 278.926C374.085 279.073 372.872 283.675 372.872 283.675L351.94 284.417C351.94 284.417 340.368 283.813 337.862 285.445C337.862 285.445 339.205 267.791 326.287 256.218L342.762 250.284C342.762 250.284 349 247.601 350.928 244.797C352.142 243.078 353.863 241.782 355.85 241.09C355.85 241.09 360.45 237.825 360.598 236.046C360.746 234.266 366.223 232.084 366.223 232.084L363.122 205.633L364.755 161.72C364.755 161.72 369.95 124.926 380.935 127.006C391.92 129.085 400.06 177.295 400.06 177.295Z" fill="#E8F5FF"/>
<path opacity="0.1" d="M380.746 221.655C380.746 221.655 396.035 217.631 400.045 222.55C404.054 227.469 380.746 221.655 380.746 221.655Z" fill="black"/>
<path opacity="0.1" d="M377.183 228.403C382.378 232.039 398.411 232.186 398.411 232.186L377.183 228.403Z" fill="black"/>
<path opacity="0.1" d="M385.052 246.577C385.499 246.724 396.073 258.002 400.511 254.59C404.95 251.178 385.052 246.577 385.052 246.577Z" fill="black"/>
<path opacity="0.1" d="M242.651 151.927C242.651 151.927 245.757 173.293 244.226 181.995C242.696 190.697 248.28 201.479 248.28 201.479L242.651 151.927Z" fill="black"/>
<path d="M173.902 160.616C170.323 163.419 167.709 170.056 165.817 177.349C162.514 190.071 161.436 204.824 161.436 204.824C161.436 204.824 132.933 198.295 135.009 195.33C136.315 193.465 134.561 179.415 133.098 169.228C132.226 163.209 131.447 158.536 131.447 158.536C131.447 158.536 183.702 152.897 173.902 160.616Z" fill="#FFB0B1"/>
<path opacity="0.1" d="M173.902 160.021C170.323 162.829 167.709 169.461 165.817 176.754C160.138 178.477 154.098 178.633 148.338 177.204C142.577 175.775 137.312 172.815 133.098 168.638C132.226 162.614 131.447 157.941 131.447 157.941C131.447 157.941 183.702 152.307 173.902 160.021Z" fill="black"/>
<path d="M189.223 144.039C189.226 151.816 186.475 159.345 181.458 165.291C176.441 171.237 169.481 175.217 161.809 176.528C154.138 177.839 146.25 176.395 139.541 172.452C132.832 168.509 127.736 162.322 125.153 154.985C122.57 147.648 122.668 139.634 125.429 132.362C128.19 125.09 133.437 119.029 140.24 115.251C147.043 111.473 154.964 110.222 162.601 111.719C170.238 113.217 177.099 117.366 181.969 123.433C186.663 129.276 189.221 136.545 189.223 144.039V144.039Z" fill="#FFB0B1"/>
<path opacity="0.1" d="M215.212 349.991H205.816L205.024 333.405L204.196 316.238C204.196 316.238 206.33 315.921 209.731 315.447L211.105 315.263H211.216C211.959 318.747 212.693 322.324 213.4 325.897C214.577 332.24 215.189 338.675 215.23 345.126C215.23 345.573 215.23 346.02 215.23 346.441C215.257 347.634 215.23 348.828 215.212 349.991Z" fill="black"/>
<path d="M213.408 349.991H95.5645C96.0746 348.833 96.4146 348.131 96.4146 348.131C96.4146 348.131 105.843 306.91 110.635 289.47C110.636 289.455 110.636 289.44 110.635 289.425C111.234 287.056 111.957 284.72 112.801 282.427V282.427C112.855 282.271 112.926 282.121 113.011 281.98C115.383 278.125 118.354 273.971 114.197 268.037C110.04 262.103 111.512 235.992 111.512 235.992C111.512 235.992 116.559 213.736 121.902 201.868C122.713 200.029 123.864 198.361 125.294 196.949C125.759 196.494 126.255 196.073 126.779 195.688V195.688C127.178 195.388 127.593 195.112 128.023 194.86L128.108 194.807C130.353 193.535 132.845 192.762 135.415 192.54C137.241 192.349 139.084 192.4 140.897 192.692C149.56 193.962 156.495 196.086 162.008 198.505C176.949 205.065 181.473 213.857 181.562 214.04L181.598 214.116C182.198 215.516 190.968 235.979 194.127 245.526C194.946 248.012 195.393 249.761 195.214 250.239C194.319 252.609 202.043 282.279 202.043 282.279C202.043 282.279 205.622 296.589 209.202 313.363C209.359 314.06 209.506 314.758 209.649 315.465C210.289 318.51 210.925 321.613 211.538 324.712C212.726 331.099 213.338 337.579 213.368 344.075C213.434 346.099 213.447 348.071 213.408 349.991Z" fill="#EB5569"/>
<path opacity="0.1" d="M134.714 182.335C134.714 182.335 126.584 179.205 126.682 183.954C126.78 188.703 128.664 190.974 128.069 191.668C127.474 192.361 128.365 196.515 128.365 196.515C128.365 196.515 139.35 196.515 144.397 198.787C149.444 201.058 168.05 205.611 170.426 206.997C172.802 208.383 181.613 214.599 181.613 214.599L182.405 202.829C182.405 202.829 173.299 195.312 158.358 191.457C143.417 187.603 134.714 182.335 134.714 182.335Z" fill="black"/>
<path d="M134.714 181.74C134.714 181.74 126.584 178.61 126.682 183.359C126.78 188.108 128.664 190.38 128.069 191.073C127.474 191.766 128.365 195.92 128.365 195.92C128.365 195.92 139.35 195.92 144.397 198.196C149.444 200.473 168.05 205.02 170.426 206.402C172.802 207.784 181.613 214.004 181.613 214.004L182.413 202.27C182.413 202.27 173.308 194.753 158.367 190.898C143.426 187.044 134.714 181.74 134.714 181.74Z" fill="#EB5569"/>
<path opacity="0.1" d="M159.256 210.064C159.256 210.064 174.792 226.874 174 231.529C173.208 236.184 159.256 210.064 159.256 210.064Z" fill="black"/>
<path opacity="0.1" d="M134.019 270.787C134.019 270.787 122.631 281.273 119.275 281.868C115.919 282.463 121.848 284.439 125.705 282.861C129.562 281.282 137.787 277.128 137.787 277.128L134.019 270.787Z" fill="black"/>
<path d="M218.036 349.991H191.479C187.765 346.772 184.253 343.789 182.015 341.996C178.436 339.125 175.854 334.899 174.207 331.5C173.836 330.727 173.514 330.002 173.241 329.345C172.752 328.213 172.322 327.056 171.952 325.879L191.618 314.208C192.705 315.132 193.726 316.13 194.674 317.195L194.911 317.468C196.003 318.756 196.965 320.218 197.05 321.417C197.149 322.812 201.032 328.209 205.001 333.392C209.029 338.664 213.154 343.704 213.427 344.044C213.427 344.044 214.107 344.969 215.217 346.391C216 347.42 216.967 348.654 218.036 349.991Z" fill="#FFB0B1"/>
<path opacity="0.1" d="M181.97 123.433C181.026 125.561 180.18 127.77 180.055 130.14C179.701 136.982 180.274 152.28 172.694 155.714C168.94 157.405 164.921 153.693 160.805 153.604C157.843 153.541 155.127 155.419 153.319 157.767C151.511 160.115 150.388 162.901 149.077 165.557C147.883 167.968 146.509 170.285 144.965 172.488C144.503 173.162 143.995 173.803 143.443 174.406C138.821 172.457 134.705 169.48 131.409 165.7C128.113 161.921 125.724 157.439 124.424 152.597C123.123 147.755 122.946 142.68 123.905 137.759C124.865 132.838 126.936 128.201 129.96 124.201C132.984 120.201 136.882 116.944 141.357 114.677C145.832 112.411 150.765 111.195 155.781 111.123C160.797 111.05 165.764 112.123 170.302 114.26C174.841 116.396 178.831 119.539 181.97 123.45V123.433Z" fill="black"/>
<path d="M179.459 128.933C179.101 135.775 179.678 151.073 172.094 154.503C168.339 156.193 164.321 152.486 160.204 152.396C157.242 152.329 154.531 154.212 152.718 156.555C150.906 158.898 149.792 161.689 148.476 164.349C147.283 166.76 145.908 169.077 144.364 171.281C143.443 172.586 142.422 173.897 141.004 174.63C138.534 175.918 135.54 175.194 132.891 174.366C129.455 173.284 126.069 172.065 122.734 170.708C122.811 170.205 122.849 169.697 122.85 169.188C122.752 169.376 122.644 169.55 122.537 169.738L122.327 170.105C121.946 170.775 121.575 171.446 121.235 172.135C121.105 172.399 120.98 172.671 120.868 172.944C120.418 173.959 120.135 175.041 120.031 176.146C119.803 179.129 121.275 181.959 122.582 184.642C127.607 195.021 130.712 207.158 126.931 218.047C125.293 222.782 122.457 226.99 120.385 231.565C116.763 239.667 115.697 248.68 117.329 257.403C118.362 262.823 120.434 268.189 119.924 273.685C119.029 283.142 110.867 290.181 102.692 295.02C98.2757 297.622 92.8703 299.938 88.1809 297.881C91.17 294.393 91.9396 289.568 92.5839 285.016C94.3469 272.599 96.1144 260.177 97.8864 247.748C98.5934 242.802 99.2989 237.857 100.003 232.911C101.318 223.619 102.652 214.223 101.829 204.873C101.229 197.982 99.5375 190.666 102.527 184.428C104.106 181.123 106.921 178.386 107.798 174.827C108.518 171.934 107.847 168.857 108.321 165.91C108.581 164.569 109.02 163.27 109.628 162.046C110.401 160.387 111.411 158.847 112.626 157.476C111.427 157.128 110.308 156.649 109.628 155.647C111.552 154.395 111.843 151.574 110.97 149.454C110.098 147.334 108.353 145.72 106.782 144.048C105.211 142.375 103.699 140.425 103.502 138.145C103.122 133.803 107.462 130.44 108.227 126.156C109.001 121.796 105.941 117.557 106.187 113.143C106.473 107.808 111.377 103.931 116.219 101.682C123.525 98.3018 131.596 96.9133 139.612 97.6572C146.136 98.2743 152.45 100.291 158.956 101.074C162.88 101.521 166.858 101.566 170.756 102.254C174.653 102.943 178.559 104.396 181.302 107.254C188.533 114.789 179.87 120.991 179.459 128.933Z" fill="#575A89"/>
<path opacity="0.1" d="M173.41 331.505C171.128 330.517 166.976 331.107 159.848 328.938C152.72 326.769 151.346 316.967 151.346 316.967V316.936C151.261 316.712 150.599 315.254 146.115 310.148C141.162 304.509 130.454 276.028 130.454 276.028C130.454 276.028 120.959 265.837 121.259 262.08C121.558 258.324 119.572 248.33 119.769 237.15C119.966 225.971 141.144 218.556 141.144 218.556C181.921 211.334 172.319 258.315 171.231 261.875C170.144 265.434 175.786 275.048 175.786 275.048C174.99 279.234 179.053 285.714 179.053 285.714C179.053 285.714 180.037 291.447 180.239 293.624C180.25 293.725 180.272 293.824 180.306 293.919C180.959 295.972 186.284 297.832 188.45 298.964C190.727 300.153 198.052 310.537 198.052 310.537C199.632 318.161 175.684 332.506 173.41 331.505Z" fill="black"/>
<path d="M174.595 329.716C172.317 328.723 168.16 329.318 161.037 327.145C153.913 324.971 152.535 315.178 152.535 315.178V315.147C152.455 314.919 151.788 313.466 147.304 308.359C142.351 302.72 131.643 274.235 131.643 274.235C131.643 274.235 122.148 264.048 122.443 260.291C122.739 256.535 120.761 246.541 120.958 235.37C121.155 224.2 142.32 216.79 142.32 216.79C183.097 209.568 173.494 256.549 172.407 260.108C171.32 263.668 176.962 273.282 176.962 273.282C176.166 277.468 180.229 283.947 180.229 283.947C180.229 283.947 181.213 289.68 181.419 291.858C181.426 291.959 181.447 292.058 181.481 292.153C182.135 294.206 187.46 296.066 189.63 297.197C191.903 298.382 199.232 308.77 199.232 308.77C200.821 316.381 176.873 330.727 174.595 329.716Z" fill="#EB5569"/>
<path opacity="0.1" d="M143.127 241.318C143.127 241.318 160.94 260.099 165.59 260.099C170.239 260.099 143.127 241.318 143.127 241.318Z" fill="black"/>
<path d="M174.595 329.716C172.317 328.723 168.16 329.318 161.037 327.145C153.913 324.972 152.535 315.178 152.535 315.178V315.147C157.256 312.017 169.212 303.176 173.924 299.943C177.239 297.676 179.946 294.344 181.53 292.135C182.184 294.188 187.509 296.048 189.679 297.179C191.952 298.364 199.281 308.752 199.281 308.752C200.821 316.381 176.872 330.727 174.595 329.716Z" fill="#FF748E"/>
<g opacity="0.1">
<path opacity="0.1" d="M109.655 155.697C109.677 155.733 109.708 155.764 109.735 155.8C109.87 155.63 110.009 155.46 110.152 155.299C109.999 155.447 109.833 155.58 109.655 155.697V155.697Z" fill="black"/>
<path opacity="0.1" d="M120.036 176.195C120.224 173.713 121.553 171.527 122.797 169.344C121.982 169.031 121.168 168.714 120.362 168.383C120.439 167.881 120.478 167.375 120.479 166.867C119.221 169.103 117.852 171.303 117.66 173.821C117.432 176.808 118.904 179.634 120.21 182.317C125.24 192.692 128.341 204.828 124.56 215.721C122.917 220.453 120.085 224.665 118.013 229.24C114.393 237.341 113.328 246.352 114.962 255.073C115.986 260.497 118.062 265.859 117.552 271.355C116.657 280.813 108.5 287.851 100.321 292.685C96.978 294.662 93.0717 296.473 89.3354 296.343C88.9895 296.9 88.6037 297.43 88.1809 297.931C92.8748 300.001 98.2757 297.671 102.692 295.06C110.876 290.23 119.051 283.21 119.946 273.734C120.456 268.238 118.38 262.876 117.351 257.452C115.717 248.732 116.779 239.721 120.394 231.619C122.452 227.048 125.316 222.832 126.94 218.1C130.721 207.207 127.616 195.071 122.591 184.696C121.289 181.995 119.808 179.182 120.036 176.195Z" fill="black"/>
<path opacity="0.1" d="M181.293 107.307C180.853 106.856 180.38 106.438 179.879 106.055C185.302 113.085 177.471 119.059 177.082 126.625C176.733 133.467 177.306 148.77 169.721 152.195C165.972 153.89 161.949 150.178 157.837 150.089C154.87 150.026 152.159 151.909 150.346 154.252C148.534 156.595 147.42 159.386 146.109 162.042C144.913 164.452 143.537 166.769 141.992 168.973C141.097 170.283 140.05 171.589 138.627 172.327C136.166 173.61 133.173 172.891 130.519 172.059C127.939 171.248 125.382 170.354 122.85 169.376C122.845 169.841 122.806 170.306 122.733 170.766C126.071 172.126 129.459 173.345 132.895 174.424C135.544 175.256 138.538 175.976 141.003 174.693C142.422 173.955 143.451 172.645 144.368 171.334C145.914 169.134 147.289 166.818 148.48 164.408C149.796 161.751 150.906 158.956 152.722 156.613C154.539 154.27 157.246 152.392 160.208 152.454C164.325 152.544 168.348 156.255 172.097 154.561C179.682 151.135 179.105 135.833 179.458 128.991C179.87 121.036 188.533 114.838 181.293 107.307Z" fill="black"/>
</g>
<path opacity="0.1" d="M122.331 170.109C121.951 170.78 121.58 171.451 121.24 172.139C121.11 172.403 120.984 172.676 120.873 172.949C118.528 170.588 112.818 164.976 109.632 163.236C110.407 161.577 111.417 160.038 112.63 158.666C112.63 158.666 120.224 162.677 122.331 170.109Z" fill="black"/>
<path d="M122.542 169.742C120.783 161.787 112.63 157.481 112.63 157.481C111.416 158.852 110.406 160.391 109.632 162.051C112.993 163.889 119.186 170.051 121.24 172.139L122.542 169.742Z" fill="#EB5569"/>
<defs>
<linearGradient id="paint0_linear_41_72" x1="326.662" y1="42.6587" x2="326.662" y2="34.4395" gradientUnits="userSpaceOnUse">
<stop stop-color="#808080" stop-opacity="0.25"/>
<stop offset="0.54" stop-color="#808080" stop-opacity="0.12"/>
<stop offset="1" stop-color="#808080" stop-opacity="0.1"/>
</linearGradient>
<linearGradient id="paint1_linear_41_72" x1="205283" y1="294469" x2="205283" y2="20531" gradientUnits="userSpaceOnUse">
<stop stop-color="#808080" stop-opacity="0.25"/>
<stop offset="0.54" stop-color="#808080" stop-opacity="0.12"/>
<stop offset="1" stop-color="#808080" stop-opacity="0.1"/>
</linearGradient>
</defs>
</svg>
